<svg width="408" height="292" viewBox="0 0 408 292" fill="none" xmlns="http://www.w3.org/2000/svg">
<path d="M337.911 10.8409C326.389 15.0345 320.764 27.0989 324.83 38.2715L365.58 150.23C369.731 161.636 381.795 167.262 393.317 163.068C404.722 158.917 410.348 146.852 406.197 135.447L365.447 23.4881C361.381 12.3155 349.316 6.68964 337.911 10.8409ZM258.359 3.0237C239.389 9.92829 230.579 27.3692 237.06 45.175L293.864 201.243C300.387 219.166 318.389 226.98 337.359 220.075C356.329 213.171 365.096 195.614 358.572 177.691L301.768 21.623C295.288 3.81716 277.329 -3.88085 258.359 3.0237ZM238.855 100.801L147.495 134.053L168.166 190.847L259.526 157.594L238.855 100.801ZM69.8212 71.6458C50.851 78.5504 42.0413 95.9913 48.5222 113.797L105.326 269.865C111.85 287.788 129.851 295.602 148.821 288.697C167.792 281.793 176.558 264.236 170.034 246.313L113.23 90.2453C106.75 72.4394 88.7914 64.7412 69.8212 71.6458ZM15.0685 128.346C3.66346 132.497 -1.96231 144.561 2.10419 155.734L42.8539 267.693C47.0051 279.098 59.0696 284.724 70.4746 280.573C81.9964 276.379 87.6222 264.315 83.471 252.91L42.7213 140.951C38.6548 129.778 26.5903 124.152 15.0685 128.346Z" fill="#7C4DFF" fill-opacity="0.85"/>
</svg>
